<svg width="25" height="27" viewBox="0 0 25 27" fill="none" xmlns="http://www.w3.org/2000/svg">
<path d="M11.354 26.2125C11.746 26.4218 12.238 26.4205 12.63 26.2112C23.3127 20.4725 24.0713 9.26051 24.062 6.07251C24.061 5.81628 23.9853 5.56591 23.8441 5.35206C23.703 5.13821 23.5025 4.97017 23.2673 4.86851L12.534 0.11384C12.3632 0.0385465 12.1785 -0.000228593 11.9919 1.01377e-06C11.8052 0.00023062 11.6206 0.0394598 11.45 0.115174L0.791326 4.86984C0.559588 4.97156 0.361974 5.13774 0.222029 5.34861C0.082083 5.55947 0.00570433 5.80612 0.0019922 6.05917C-0.0433411 9.23117 0.595325 20.4672 11.354 26.2125ZM7.60199 10.9312L10.6593 13.9885L16.3833 8.26451L18.2687 10.1498L10.6593 17.7592L5.71666 12.8165L7.60199 10.9312Z" fill="#7BC678"/>
</svg>
