<svg width="124" height="218" viewBox="0 0 124 218" fill="none" xmlns="http://www.w3.org/2000/svg">
<path d="M4.17045 190.978C6.4737 190.978 8.34089 189.111 8.34089 186.808C8.34089 184.505 6.4737 182.638 4.17045 182.638C1.86719 182.638 0 184.505 0 186.808C0 189.111 1.86719 190.978 4.17045 190.978Z" fill="#7BC678"/>
<path d="M4.17045 86.5865C6.4737 86.5865 8.34089 84.7193 8.34089 82.416C8.34089 80.1128 6.4737 78.2457 4.17045 78.2457C1.86719 78.2457 0 80.1128 0 82.416C0 84.7193 1.86719 86.5865 4.17045 86.5865Z" fill="#7BC678"/>
<path d="M32.9002 217.127C35.2034 217.127 37.0706 215.26 37.0706 212.956C37.0706 210.653 35.2034 208.786 32.9002 208.786C30.5969 208.786 28.7297 210.653 28.7297 212.956C28.7297 215.26 30.5969 217.127 32.9002 217.127Z" fill="#7BC678"/>
<path d="M32.9002 190.978C35.2034 190.978 37.0706 189.111 37.0706 186.808C37.0706 184.505 35.2034 182.638 32.9002 182.638C30.5969 182.638 28.7297 184.505 28.7297 186.808C28.7297 189.111 30.5969 190.978 32.9002 190.978Z" fill="#7BC678"/>
<path d="M32.9002 138.816C35.2034 138.816 37.0706 136.949 37.0706 134.645C37.0706 132.342 35.2034 130.475 32.9002 130.475C30.5969 130.475 28.7297 132.342 28.7297 134.645C28.7297 136.949 30.5969 138.816 32.9002 138.816Z" fill="#7BC678"/>
<path d="M32.9002 60.5046C35.2034 60.5046 37.0706 58.6374 37.0706 56.3341C37.0706 54.0309 35.2034 52.1638 32.9002 52.1638C30.5969 52.1638 28.7297 54.0309 28.7297 56.3341C28.7297 58.6374 30.5969 60.5046 32.9002 60.5046Z" fill="#7BC678"/>
<path d="M32.9002 34.4227C35.2034 34.4227 37.0706 32.5556 37.0706 30.2524C37.0706 27.9491 35.2034 26.0819 32.9002 26.0819C30.5969 26.0819 28.7297 27.9491 28.7297 30.2524C28.7297 32.5556 30.5969 34.4227 32.9002 34.4227Z" fill="#7BC678"/>
<path d="M61.5635 190.978C63.8668 190.978 65.734 189.111 65.734 186.808C65.734 184.505 63.8668 182.638 61.5635 182.638C59.2603 182.638 57.3931 184.505 57.3931 186.808C57.3931 189.111 59.2603 190.978 61.5635 190.978Z" fill="#7BC678"/>
<path d="M61.5635 164.896C63.8668 164.896 65.734 163.029 65.734 160.726C65.734 158.423 63.8668 156.556 61.5635 156.556C59.2603 156.556 57.3931 158.423 57.3931 160.726C57.3931 163.029 59.2603 164.896 61.5635 164.896Z" fill="#7BC678"/>
<path d="M61.5635 112.734C63.8668 112.734 65.734 110.867 65.734 108.563C65.734 106.26 63.8668 104.393 61.5635 104.393C59.2603 104.393 57.3931 106.26 57.3931 108.563C57.3931 110.867 59.2603 112.734 61.5635 112.734Z" fill="#7BC678"/>
<path d="M61.5635 86.5865C63.8668 86.5865 65.734 84.7193 65.734 82.416C65.734 80.1128 63.8668 78.2457 61.5635 78.2457C59.2603 78.2457 57.3931 80.1128 57.3931 82.416C57.3931 84.7193 59.2603 86.5865 61.5635 86.5865Z" fill="#7BC678"/>
<path d="M61.5635 34.4227C63.8668 34.4227 65.734 32.5556 65.734 30.2524C65.734 27.9491 63.8668 26.0819 61.5635 26.0819C59.2603 26.0819 57.3931 27.9491 57.3931 30.2524C57.3931 32.5556 59.2603 34.4227 61.5635 34.4227Z" fill="#7BC678"/>
<path d="M90.2931 217.127C92.5963 217.127 94.4635 215.26 94.4635 212.956C94.4635 210.653 92.5963 208.786 90.2931 208.786C87.9898 208.786 86.1228 210.653 86.1228 212.956C86.1228 215.26 87.9898 217.127 90.2931 217.127Z" fill="#7BC678"/>
<path d="M90.2931 190.978C92.5963 190.978 94.4635 189.111 94.4635 186.808C94.4635 184.505 92.5963 182.638 90.2931 182.638C87.9898 182.638 86.1228 184.505 86.1228 186.808C86.1228 189.111 87.9898 190.978 90.2931 190.978Z" fill="#7BC678"/>
<path d="M90.2931 164.896C92.5963 164.896 94.4635 163.029 94.4635 160.726C94.4635 158.423 92.5963 156.556 90.2931 156.556C87.9898 156.556 86.1228 158.423 86.1228 160.726C86.1228 163.029 87.9898 164.896 90.2931 164.896Z" fill="#7BC678"/>
<path d="M90.2931 138.816C92.5963 138.816 94.4635 136.949 94.4635 134.645C94.4635 132.342 92.5963 130.475 90.2931 130.475C87.9898 130.475 86.1228 132.342 86.1228 134.645C86.1228 136.949 87.9898 138.816 90.2931 138.816Z" fill="#7BC678"/>
<path d="M90.2931 86.5865C92.5963 86.5865 94.4635 84.7193 94.4635 82.416C94.4635 80.1128 92.5963 78.2457 90.2931 78.2457C87.9898 78.2457 86.1228 80.1128 86.1228 82.416C86.1228 84.7193 87.9898 86.5865 90.2931 86.5865Z" fill="#7BC678"/>
<path d="M90.2931 60.5046C92.5963 60.5046 94.4635 58.6374 94.4635 56.3341C94.4635 54.0309 92.5963 52.1638 90.2931 52.1638C87.9898 52.1638 86.1228 54.0309 86.1228 56.3341C86.1228 58.6374 87.9898 60.5046 90.2931 60.5046Z" fill="#7BC678"/>
<path d="M90.2931 8.34081C92.5963 8.34081 94.4635 6.4737 94.4635 4.17045C94.4635 1.86719 92.5963 0 90.2931 0C87.9898 0 86.1228 1.86719 86.1228 4.17045C86.1228 6.4737 87.9898 8.34081 90.2931 8.34081Z" fill="#7BC678"/>
<path d="M119.022 190.978C121.325 190.978 123.192 189.111 123.192 186.808C123.192 184.505 121.325 182.638 119.022 182.638C116.719 182.638 114.852 184.505 114.852 186.808C114.852 189.111 116.719 190.978 119.022 190.978Z" fill="#7BC678"/>
<path d="M119.022 138.816C121.325 138.816 123.192 136.949 123.192 134.645C123.192 132.342 121.325 130.475 119.022 130.475C116.719 130.475 114.852 132.342 114.852 134.645C114.852 136.949 116.719 138.816 119.022 138.816Z" fill="#7BC678"/>
<path d="M119.022 86.5865C121.325 86.5865 123.192 84.7193 123.192 82.416C123.192 80.1128 121.325 78.2457 119.022 78.2457C116.719 78.2457 114.852 80.1128 114.852 82.416C114.852 84.7193 116.719 86.5865 119.022 86.5865Z" fill="#7BC678"/>
</svg>
