<svg width="327" height="143" viewBox="0 0 327 143" fill="none" xmlns="http://www.w3.org/2000/svg">
<path d="M51.3741 2.75359C50.9974 1.51918 49.6787 0.854501 48.4543 1.23432C47.2299 1.61414 46.5706 2.9435 46.9473 4.17791L52.9753 22.884C53.3991 24.0234 54.6236 24.6881 55.8009 24.3558C57.0253 23.976 57.7788 22.6941 57.4021 21.4597C57.4021 21.4122 51.3741 2.75359 51.3741 2.75359Z" fill="#8C98A4"/>
<path d="M42.0496 5.83947C41.6729 4.60506 40.3543 3.94038 39.1299 4.3202C37.9054 4.70001 37.2461 6.02938 37.6229 7.26379L43.6508 25.9699C44.0747 27.1093 45.2991 27.774 46.4764 27.4416C47.7009 27.0618 48.4544 25.7799 48.0776 24.5455C48.0776 24.4981 42.0496 5.83947 42.0496 5.83947Z" fill="#8C98A4"/>
<path d="M59.0047 18.2784C60.2291 17.8986 60.8884 16.5692 60.5117 15.3348C60.1349 14.1004 58.8163 13.4357 57.5919 13.8156L38.99 19.8452C37.8597 20.2725 37.2004 21.5069 37.5301 22.6938C37.9068 23.9282 39.1783 24.6879 40.4028 24.308C40.4969 24.308 59.0047 18.2784 59.0047 18.2784Z" fill="#8C98A4"/>
<path d="M42.8495 23.5485C44.074 23.1687 45.6281 22.6464 47.2763 22.0767C46.8996 20.8423 46.3816 19.2755 45.8164 17.6138L41.3896 19.0856L42.8495 23.5485Z" fill="#8C98A4"/>
<path d="M52.2206 20.4624C53.916 19.8926 55.4701 19.4179 56.6474 18.9906C56.2707 17.7562 55.7527 16.1894 55.1875 14.5277L50.7607 15.9995L52.2206 20.4624Z" fill="#8C98A4"/>
<path d="M55.9424 8.82994C57.1669 8.45012 57.8262 7.12075 57.4494 5.88634C57.0727 4.65193 55.7541 3.98725 54.5296 4.36707L35.9748 10.4442C34.8446 10.8715 34.1853 12.1059 34.5149 13.2928C34.8917 14.5747 36.1632 15.3343 37.3876 14.907C37.4347 14.907 55.9424 8.82994 55.9424 8.82994Z" fill="#8C98A4"/>
<path d="M39.8366 14.0999C41.061 13.7201 42.6151 13.1979 44.2634 12.6282C43.6983 10.919 43.2273 9.35222 42.8035 8.16528L38.3767 9.63708L39.8366 14.0999Z" fill="#8C98A4"/>
<path d="M49.1608 11.0613C50.8562 10.4916 52.4103 10.0168 53.5876 9.58952C53.0225 7.88033 52.5516 6.31358 52.1277 5.12665L47.7009 6.59844L49.1608 11.0613Z" fill="#8C98A4"/>
<path d="M77.7943 7.69083C78.5949 8.07065 78.6891 8.30804 78.0298 9.54245C77.3705 10.8243 77.2292 10.8718 76.3815 10.5395C75.3454 10.1122 74.0739 9.77983 73.2262 9.77983C71.8605 9.77983 70.9657 10.2546 70.9657 11.0142C70.9657 13.4831 78.8304 12.1537 78.8304 17.4712C78.8304 20.1299 76.5699 21.8865 73.1791 21.8865C71.3896 21.8865 69.1762 21.2693 67.6692 20.5097C66.9157 20.1299 66.8686 19.8925 67.5279 18.6106C68.093 17.5186 68.2814 17.3762 69.082 17.7085C70.4006 18.2783 72.0018 18.7056 73.132 18.7056C74.4036 18.7056 75.2042 18.1833 75.2042 17.4237C75.2042 15.0023 67.1983 16.1418 67.1983 11.0142C67.1983 8.30804 69.4588 6.45642 72.8024 6.45642C74.4036 6.59885 76.4286 7.07363 77.7943 7.69083Z" fill="#8C98A4"/>
<path d="M84.1506 1.4235V21.1741C84.1506 21.4589 83.821 21.7913 83.3971 21.7913H81.325C80.8541 21.7913 80.5715 21.4589 80.5715 21.1741V1.4235C80.5715 0.426472 80.8541 0.378994 82.3611 0.378994C84.0565 0.331517 84.1506 0.473949 84.1506 1.4235Z" fill="#8C98A4"/>
<path fill-rule="evenodd" clip-rule="evenodd" d="M98.7515 20.9844V12.4859C98.7515 8.78271 96.2556 6.59875 92.2997 6.59875C90.5102 6.59875 88.5322 7.16848 87.1194 8.11803C86.3659 8.5928 86.3659 8.83019 87.1194 10.0171C87.92 11.2041 88.0613 11.2515 88.8148 10.8242C89.7567 10.2545 90.934 9.87469 91.923 9.87469C93.9951 9.87469 95.2195 10.8242 95.2195 12.391V13.388C94.2305 12.9607 93.0061 12.7233 91.6875 12.7233C88.1555 12.7233 85.8479 14.6224 85.8479 17.4711C85.8479 20.1298 87.92 21.9339 90.9811 21.9339C92.5823 21.9339 94.1834 21.2692 95.2666 20.0348L95.2195 20.9369C95.1724 21.4117 95.5021 21.744 95.973 21.744H97.998C98.4219 21.744 98.7515 21.4592 98.7515 20.9844ZM91.4048 19.0842C90.1333 19.0842 89.2856 18.4195 89.2856 17.4225C89.2856 16.1881 90.5571 15.2385 92.4409 15.2385C93.3356 15.2385 94.3717 15.3809 95.1723 15.7133V17.0427C94.3717 18.3245 92.9589 19.0842 91.4048 19.0842Z" fill="#8C98A4"/>
<path d="M112.738 7.73746C113.491 8.16475 113.491 8.40214 112.691 9.68403C111.937 10.871 111.796 10.9659 110.948 10.5386C110.336 10.2063 109.3 9.92142 108.499 9.92142C105.909 9.92142 104.214 11.6306 104.214 14.2419C104.214 16.9481 105.909 18.7522 108.499 18.7522C109.394 18.7522 110.524 18.4199 111.231 17.9926C111.984 17.5653 112.125 17.5653 112.926 18.7522C113.632 19.8442 113.632 20.0816 112.973 20.5563C111.843 21.3634 110.006 21.9807 108.405 21.9807C103.649 21.9807 100.446 18.8946 100.446 14.2893C100.446 9.68403 103.649 6.64548 108.452 6.64548C109.959 6.598 111.655 7.07278 112.738 7.73746Z" fill="#8C98A4"/>
<path d="M128.325 19.8912C128.937 20.6509 128.702 20.9357 127.195 21.458C125.688 22.0277 125.452 21.9802 124.934 21.2681L120.649 15.5233L118.718 17.3749V21.1256C118.718 21.4105 118.388 21.7428 117.965 21.7428H115.892C115.421 21.7428 115.139 21.4105 115.139 21.1256V1.42255C115.139 0.425529 115.421 0.378052 116.928 0.378052C118.671 0.378052 118.718 0.520484 118.718 1.42255V12.6272L124.558 6.9774C125.217 6.36019 125.547 6.40767 126.724 7.16731C127.995 7.97442 128.09 8.21181 127.477 8.82901L123.145 13.102L128.325 19.8912Z" fill="#8C98A4"/>
<path fill-rule="evenodd" clip-rule="evenodd" d="M215.553 23.2469C214.777 23.3743 214.001 23.4538 213.205 23.5354C212.729 23.5841 212.247 23.6336 211.752 23.6944L207.787 12.2228V24.1826C206.548 24.3046 205.433 24.4673 204.235 24.6707V2.74451H207.539L212.042 15.1924V2.74451H215.553V23.2469ZM222.409 10.7994C223.107 10.7994 223.988 10.7781 224.849 10.7572H224.849C225.67 10.7374 226.471 10.718 227.076 10.718V14.1351C225.548 14.1351 223.731 14.1351 222.409 14.2165V19.3014C223.053 19.2626 223.7 19.2196 224.351 19.1765C225.746 19.0841 227.155 18.9907 228.563 18.9353V22.2303L218.939 22.9625V2.74486H228.563V6.16193H222.409V10.7994ZM237.857 6.20261H241.45C241.45 6.20261 241.45 2.74486 241.492 2.74486H230.793V6.20261H234.387V21.9862C235.502 21.9455 236.7 21.9455 237.857 21.9455V6.20261ZM247.108 10.5553H251.858V13.9724H247.108V21.7421H243.68V2.74486H253.387V6.16193H247.108V10.5553ZM262.649 18.8954C261.455 18.8263 260.251 18.7566 259.047 18.7319V2.74486H255.578V21.9455C258.758 22.0269 261.856 22.1896 264.954 22.393V19.0166C264.191 18.9847 263.422 18.9402 262.65 18.8954L262.649 18.8954L262.649 18.8954ZM267.886 22.6371C268.272 22.6653 268.664 22.6886 269.058 22.7121C269.803 22.7564 270.558 22.8014 271.314 22.8812V2.74486H267.886V22.6371ZM282.095 13.1588L286.514 2.74486H282.673L280.236 8.48066L277.964 2.74486H274.247L278.295 13.0368L273.834 23.0439C274.329 23.109 274.825 23.161 275.321 23.2131C276.064 23.2912 276.808 23.3693 277.551 23.4914L280.112 17.6742L282.59 24.0202C283.053 24.0914 283.511 24.1677 283.967 24.2436C284.814 24.3846 285.656 24.5247 286.514 24.6304L282.095 13.1588Z" fill="#8C98A4"/>
<path fill-rule="evenodd" clip-rule="evenodd" d="M52.5056 62.5619C52.5056 63.4143 51.7621 64.145 50.8947 64.145C50.0273 64.145 49.2838 63.4143 49.2838 62.5619C49.2838 61.7095 50.0273 60.9789 50.8947 60.9789C51.7621 60.9789 52.5056 61.7095 52.5056 62.5619ZM50.895 65.4437C49.945 65.4437 49.2015 66.1744 49.2015 67.108C49.2015 68.0416 49.945 68.7722 50.895 68.7722C51.845 68.7722 52.5885 68.0416 52.5885 67.108C52.5885 66.1338 51.845 65.4437 50.895 65.4437ZM49.1603 71.5729C49.1603 70.6393 49.9451 69.8681 50.8951 69.8681C51.8452 69.8681 52.6713 70.6393 52.63 71.5729C52.63 72.5065 51.8452 73.2777 50.8951 73.2777C49.9451 73.2777 49.1603 72.5065 49.1603 71.5729ZM50.895 74.3735C49.945 74.3735 49.2015 75.1041 49.2015 76.0377C49.2015 76.9713 49.945 77.7019 50.895 77.7019C51.845 77.7019 52.5885 76.9713 52.5885 76.0377C52.5885 75.1447 51.845 74.3735 50.895 74.3735ZM49.2838 80.5435C49.2838 79.6911 50.0273 78.9604 50.8947 78.9604C51.8034 78.9604 52.5056 79.6911 52.5056 80.5435C52.5056 81.3959 51.7621 82.1265 50.8947 82.1265C50.0273 82.1265 49.2838 81.3959 49.2838 80.5435ZM55.3559 65.2407C54.3232 65.2407 53.4558 66.0931 53.4558 67.1078C53.4558 68.1226 54.3232 68.975 55.3559 68.975C56.3885 68.975 57.2559 68.1226 57.2559 67.1078C57.2559 66.0931 56.3885 65.2407 55.3559 65.2407ZM53.3735 71.6141C53.3735 70.5181 54.2822 69.6657 55.3562 69.6657C56.4301 69.6657 57.3388 70.5181 57.3388 71.6141C57.3388 72.71 56.4301 73.5624 55.3562 73.5624C54.2409 73.5624 53.3735 72.6694 53.3735 71.6141ZM55.3559 74.1704C54.3232 74.1704 53.4558 75.0228 53.4558 76.0376C53.4558 77.0523 54.3232 77.9047 55.3559 77.9047C56.3885 77.9047 57.2559 77.0523 57.2559 76.0376C57.2559 75.0228 56.3885 74.1704 55.3559 74.1704ZM57.7514 71.5728C57.7514 70.3551 58.784 69.4215 59.9405 69.4215C61.0971 69.4215 62.0471 70.3551 62.1297 71.5728C62.1297 72.7905 61.1797 73.7241 59.9405 73.7241C58.7014 73.7241 57.7514 72.7094 57.7514 71.5728ZM46.3928 65.6468C45.608 65.6468 44.9471 66.2963 44.9471 67.0675C44.9471 67.8387 45.608 68.4882 46.3928 68.4882C47.1776 68.4882 47.8385 67.8387 47.8385 67.0675C47.8385 66.2963 47.2189 65.6468 46.3928 65.6468ZM44.8648 71.5737C44.8648 70.7213 45.5257 70.0719 46.3931 70.0719C47.2605 70.0719 47.9214 70.7213 47.9214 71.5737C47.9214 72.4261 47.2605 73.0756 46.3931 73.0756C45.5257 73.0756 44.8648 72.4261 44.8648 71.5737ZM46.3928 74.5765C45.608 74.5765 44.9471 75.226 44.9471 75.9972C44.9471 76.7684 45.608 77.4179 46.3928 77.4179C47.1776 77.4179 47.8385 76.7684 47.8385 75.9972C47.8385 75.226 47.2189 74.5765 46.3928 74.5765ZM40.5686 71.613C40.5686 70.8823 41.1469 70.3141 41.8904 70.3141C42.6339 70.3141 43.2121 70.8823 43.2121 71.613C43.2121 72.3436 42.6339 72.9119 41.8904 72.9119C41.1469 72.9119 40.5686 72.3436 40.5686 71.613Z" fill="#8C98A4"/>
<path d="M78.5711 68.8118C78.4059 68.8118 78.282 68.9741 78.282 69.0959V80.3396C78.282 80.5019 78.4472 80.6237 78.5711 80.6237H79.9342C80.0994 80.6237 80.2233 80.4613 80.2233 80.3396V69.0959C80.2233 68.9335 80.0581 68.8118 79.9342 68.8118H78.5711Z" fill="#8C98A4"/>
<path d="M79.3142 64.0629C78.5707 64.0629 77.9924 64.6312 77.9924 65.3618C77.9924 66.0925 78.5707 66.6607 79.3142 66.6607C80.0577 66.6607 80.636 66.0925 80.636 65.3618C80.636 64.6312 80.0164 64.0629 79.3142 64.0629Z" fill="#8C98A4"/>
<path d="M107.898 68.8118C107.733 68.8118 107.609 68.9741 107.609 69.0959V80.3396C107.609 80.5019 107.774 80.6237 107.898 80.6237H109.261C109.427 80.6237 109.55 80.4613 109.55 80.3396V69.0959C109.55 68.9335 109.385 68.8118 109.261 68.8118H107.898Z" fill="#8C98A4"/>
<path d="M108.559 64.0629C107.816 64.0629 107.237 64.6312 107.237 65.3618C107.237 66.0925 107.816 66.6607 108.559 66.6607C109.303 66.6607 109.881 66.0925 109.881 65.3618C109.881 64.6312 109.303 64.0629 108.559 64.0629Z" fill="#8C98A4"/>
<path fill-rule="evenodd" clip-rule="evenodd" d="M122.506 79.3918C122.497 79.4317 122.477 79.4801 122.425 79.5285C122.425 79.6097 122.339 79.6909 122.167 79.6503L122.233 79.7265C122.225 79.7297 122.217 79.7315 122.211 79.7315H122.081L122.081 79.7315H121.91V79.6098V79.2445H122.211C122.297 79.2445 122.383 79.2445 122.426 79.3256C122.476 79.3256 122.497 79.353 122.506 79.3918ZM121.91 79.7315H121.866V80.0968H121.694V79.082H122.081H122.253C122.339 79.082 122.425 79.1632 122.425 79.1632C122.511 79.1632 122.511 79.2444 122.511 79.2444V79.3256C122.511 79.342 122.511 79.3649 122.506 79.3918C122.512 79.4199 122.512 79.454 122.512 79.488C122.512 79.5692 122.512 79.6504 122.426 79.6504C122.376 79.6504 122.325 79.6782 122.283 79.7013C122.265 79.7116 122.248 79.721 122.233 79.7265L122.554 80.0968H122.382L122.081 79.7315H121.91V79.7315Z" fill="#8C98A4"/>
<path fill-rule="evenodd" clip-rule="evenodd" d="M121.157 79.6095C121.157 79.1224 121.611 78.6759 122.107 78.6759C122.644 78.6759 123.057 79.0818 123.057 79.6095C123.057 80.0966 122.602 80.5431 122.107 80.5431C121.611 80.5431 121.157 80.0966 121.157 79.6095ZM121.24 79.6106C121.24 80.0976 121.611 80.463 122.107 80.463C122.562 80.463 122.975 80.0976 122.975 79.6106C122.975 79.1235 122.603 78.7582 122.107 78.7582C121.611 78.7582 121.24 79.1235 121.24 79.6106Z" fill="#8C98A4"/>
<path d="M89.9304 70.6384C90.0956 70.6384 90.2195 70.476 90.2195 70.3543V69.0148C90.2195 68.8524 90.0543 68.7306 89.9304 68.7306H86.9977V64.428C86.9977 64.2656 86.8325 64.1439 86.7086 64.1439H85.3455C85.1803 64.1439 85.0564 64.3062 85.0564 64.428V68.7306H83.6107C83.4454 68.7306 83.3215 68.893 83.3215 69.0148V70.3543C83.3215 70.5166 83.4868 70.6384 83.6107 70.6384H85.0564V77.1329C85.0564 79.1219 86.4194 80.4208 88.4021 80.4208H89.8478C90.013 80.4208 90.1369 80.2584 90.1369 80.1367V78.7972C90.1369 78.6348 89.9717 78.513 89.8478 78.513H88.6086C87.6586 78.513 86.9977 77.8636 86.9977 76.8488V70.5978H89.9304V70.6384Z" fill="#8C98A4"/>
<path d="M118.926 70.6384C119.091 70.6384 119.215 70.476 119.215 70.3543V69.0148C119.215 68.8524 119.05 68.7306 118.926 68.7306H115.993V64.428C115.993 64.2656 115.828 64.1439 115.704 64.1439H114.341C114.176 64.1439 114.052 64.3062 114.052 64.428V68.7306H112.606C112.441 68.7306 112.317 68.893 112.317 69.0148V70.3543C112.317 70.5166 112.482 70.6384 112.606 70.6384H114.052V77.1329C114.052 79.1219 115.415 80.4208 117.397 80.4208H118.843C119.008 80.4208 119.132 80.2584 119.132 80.1367V78.7972C119.132 78.6348 118.967 78.513 118.843 78.513H117.521C116.571 78.513 115.91 77.8636 115.91 76.8488V70.5978H118.884L118.926 70.6384Z" fill="#8C98A4"/>
<path d="M69.8964 70.6397V80.2192C69.8964 80.3815 70.0617 80.5033 70.1856 80.5033H71.5487C71.7139 80.5033 71.8378 80.3409 71.8378 80.2192V70.6397H75.0596C75.2248 70.6397 75.3487 70.4773 75.3487 70.3556V69.0161C75.3487 68.8537 75.1835 68.7319 75.0596 68.7319H71.8378V66.2153C71.8378 65.2005 72.5813 64.5105 73.4487 64.5105H75.0596C75.2248 64.5105 75.3487 64.3481 75.3487 64.2264V62.8869C75.3487 62.7245 75.1835 62.6027 75.0596 62.6027H73.5313C71.5073 62.6027 69.8964 64.2669 69.8964 66.1747V68.7319H68.4508C68.2855 68.7319 68.1616 68.8943 68.1616 69.0161V70.3556C68.1616 70.5179 68.3268 70.6397 68.4508 70.6397H69.8964Z" fill="#8C98A4"/>
<path fill-rule="evenodd" clip-rule="evenodd" d="M99.0576 68.3662C100.668 68.3662 102.197 69.0157 103.271 70.1522C104.345 71.2887 104.923 72.8718 104.923 74.6172C104.923 78.9604 101.908 80.9088 99.0163 80.9088C96.0836 80.9088 93.1096 79.001 93.1096 74.6172V62.8053C93.1096 62.6835 93.2335 62.5211 93.3988 62.5211H94.7618C94.8857 62.5211 95.051 62.6429 95.051 62.8053V69.9492C96.001 69.0157 97.5293 68.3662 99.0576 68.3662ZM95.0097 74.6587C95.0097 76.81 96.0836 79.0831 99.0163 79.0831C101.949 79.0831 102.982 76.81 103.023 74.6587C103.023 72.0609 101.412 70.2749 99.0163 70.2749C96.6206 70.2749 95.0097 72.0203 95.0097 74.6587Z" fill="#8C98A4"/>
<path d="M224.277 67.1749H214.646V70.0147H221.494C221.152 74.0161 217.813 75.7802 214.689 75.7802C210.665 75.7802 207.155 72.5962 207.155 68.1645C207.155 63.8189 210.494 60.4628 214.689 60.4628C217.942 60.4628 219.825 62.5281 219.825 62.5281L221.794 60.4628C221.794 60.4628 219.226 57.6231 214.56 57.6231C208.61 57.5801 204.031 62.6141 204.031 68.0785C204.031 73.4137 208.354 78.6199 214.731 78.6199C220.339 78.6199 224.448 74.7906 224.448 69.0681C224.448 67.8633 224.277 67.1749 224.277 67.1749Z" fill="#8C98A4"/>
<path fill-rule="evenodd" clip-rule="evenodd" d="M225.346 71.7788C225.346 68.1645 228.171 65.0667 232.109 65.0667C235.362 65.0667 238.872 67.3901 238.915 71.8648C238.915 75.8232 235.919 78.6199 232.195 78.6199C228.086 78.6199 225.346 75.479 225.346 71.7788ZM235.919 71.8644C235.919 69.3689 234.079 67.7769 232.153 67.7769C229.97 67.7769 228.3 69.498 228.343 71.8214C228.343 74.2309 230.012 75.9519 232.153 75.9519C234.122 75.9519 235.919 74.36 235.919 71.8644Z" fill="#8C98A4"/>
<path fill-rule="evenodd" clip-rule="evenodd" d="M240.071 71.7788C240.071 68.1645 242.896 65.0667 246.834 65.0667C250.087 65.0667 253.597 67.3901 253.64 71.8648C253.64 75.8232 250.644 78.6199 246.92 78.6199C242.811 78.6199 240.071 75.479 240.071 71.7788ZM250.643 71.8644C250.643 69.3689 248.802 67.7769 246.876 67.7769C244.693 67.7769 243.024 69.498 243.067 71.8214C243.067 74.2309 244.736 75.9519 246.876 75.9519C248.845 75.9519 250.643 74.36 250.643 71.8644Z" fill="#8C98A4"/>
<path fill-rule="evenodd" clip-rule="evenodd" d="M254.796 71.8643C254.796 68.2931 257.621 65.1092 261.259 65.1092C262.843 65.1092 264.041 65.7116 264.812 66.6581V65.4964H267.637V77.6729C267.637 82.4488 264.897 84.7292 261.302 84.7292C258.006 84.7292 256.165 82.707 255.266 80.7708L257.877 79.6951C258.263 80.5556 259.29 82.1046 261.345 82.1046C263.485 82.1046 264.897 80.6847 264.897 78.3613V77.0275C264.084 77.931 263.1 78.6625 261.173 78.6625C258.092 78.6625 254.796 75.9088 254.796 71.8643ZM265.11 71.9073C265.11 69.3258 263.27 67.7768 261.515 67.7768C259.632 67.7768 257.791 69.2827 257.748 71.9504C257.748 74.4029 259.546 75.9948 261.472 75.9948C263.313 75.9948 265.11 74.575 265.11 71.9073Z" fill="#8C98A4"/>
<path fill-rule="evenodd" clip-rule="evenodd" d="M274.015 71.8218C274.015 67.7773 276.882 65.0667 280.307 65.0667C282.961 65.0667 284.972 66.8738 285.871 68.939L286.342 70.0577L277.311 73.844C277.867 74.8767 278.723 75.9093 280.606 75.9093C282.276 75.9093 283.303 75.0057 283.902 74.0592L286.256 75.6511C285.229 77.028 283.431 78.6199 280.606 78.6199C277.225 78.6199 274.015 76.0814 274.015 71.8218ZM282.917 69.1535C282.489 68.336 281.633 67.6906 280.391 67.6906C278.465 67.6906 276.582 69.7128 276.924 71.692L282.917 69.1535Z" fill="#8C98A4"/>
<path d="M269.735 78.2324H272.688V58.2682H269.735V78.2324Z" fill="#8C98A4"/>
<path fill-rule="evenodd" clip-rule="evenodd" d="M227.536 134.211L227.536 134.211C227.906 135.154 227.988 136.055 227.865 136.957C227.577 138.842 226.344 140.481 224.536 141.219C223.878 141.505 223.179 141.628 222.439 141.628C222.234 141.628 221.987 141.628 221.782 141.587C220.919 141.505 220.056 141.219 219.193 140.727C218.165 140.153 217.138 139.293 215.987 138.063C214.836 139.293 213.85 140.153 212.781 140.727C211.918 141.219 211.055 141.464 210.192 141.587C210.089 141.587 209.976 141.598 209.863 141.608L209.863 141.608C209.75 141.618 209.637 141.628 209.534 141.628C208.794 141.628 208.096 141.505 207.438 141.219C205.671 140.481 204.356 138.883 204.068 136.957C203.945 136.014 204.068 135.113 204.397 134.211C204.52 133.843 204.643 133.556 204.767 133.269C204.972 132.818 205.178 132.367 205.342 131.958L205.383 131.917C207.191 128.065 209.082 124.172 211.055 120.32L211.137 120.156C211.343 119.787 211.548 119.378 211.754 118.968C211.809 118.881 211.864 118.793 211.92 118.704L211.92 118.704L211.92 118.704C212.155 118.329 212.4 117.939 212.699 117.575C213.562 116.591 214.713 116.017 215.987 116.017C217.22 116.017 218.412 116.591 219.234 117.616C219.645 118.066 219.932 118.558 220.179 119.009C220.385 119.419 220.59 119.828 220.795 120.197L220.878 120.361C222.892 124.213 224.782 128.106 226.549 131.958H226.591C226.755 132.367 226.96 132.818 227.166 133.269L227.166 133.269C227.289 133.556 227.413 133.884 227.536 134.211ZM247.386 122.45C247.386 123.392 246.646 124.13 245.701 124.13C244.756 124.13 244.016 123.392 244.016 122.45C244.016 121.507 244.756 120.769 245.701 120.769C246.688 120.81 247.386 121.548 247.386 122.45ZM240.524 125.811V126.22C240.524 126.22 239.743 125.196 238.017 125.196C235.222 125.196 233.043 127.327 233.043 130.277C233.043 133.186 235.222 135.358 238.017 135.358C239.743 135.358 240.524 134.293 240.524 134.293V134.744C240.524 134.948 240.688 135.112 240.894 135.112H242.99V125.442H240.894C240.647 125.442 240.524 125.606 240.524 125.811ZM238.427 133.023C239.372 133.023 240.153 132.531 240.523 131.957V128.515C240.153 127.983 239.331 127.45 238.427 127.45C236.783 127.45 235.509 128.474 235.509 130.236C235.509 131.998 236.783 133.023 238.427 133.023ZM244.469 125.441H246.935V135.071H244.469V125.441ZM278.828 126.22C278.828 126.22 279.65 125.196 281.335 125.196C284.13 125.196 286.308 127.327 286.308 130.236C286.308 133.145 284.13 135.317 281.335 135.317C279.609 135.317 278.828 134.252 278.828 134.252V134.703C278.828 134.908 278.664 135.071 278.458 135.071H276.362V120.811H278.828V126.22ZM280.924 132.981C279.978 132.981 279.238 132.489 278.827 131.916V128.473C279.197 127.941 280.019 127.408 280.924 127.408C282.568 127.408 283.842 128.432 283.842 130.195C283.842 131.957 282.568 132.981 280.924 132.981ZM275.088 135.112V129.376C275.088 127.736 274.76 126.835 273.938 126.138C273.198 125.524 272.294 125.196 271.225 125.196C270.28 125.196 269.334 125.483 268.595 126.22V125.811C268.595 125.606 268.43 125.442 268.225 125.442H266.252V135.112H268.718V128.392C269.211 127.818 269.992 127.45 270.732 127.45C272.088 127.45 272.622 128.064 272.622 129.662V135.112H275.088ZM260.251 125.196C258.566 125.196 257.744 126.22 257.744 126.22V120.811H255.278V135.071H257.374C257.58 135.071 257.744 134.908 257.744 134.703V134.252C257.744 134.252 258.525 135.317 260.251 135.317C263.046 135.317 265.224 133.145 265.224 130.236C265.265 127.327 263.087 125.196 260.251 125.196ZM257.743 131.916C258.154 132.489 258.894 132.981 259.839 132.981C261.483 132.981 262.757 131.957 262.757 130.195C262.757 128.432 261.483 127.408 259.839 127.408C258.935 127.408 258.113 127.941 257.743 128.473V131.916ZM253.182 125.196C253.922 125.196 254.333 125.319 254.333 125.319V127.614C254.333 127.614 252.278 126.917 251.004 128.392V135.112H248.538V125.442H250.634C250.839 125.442 251.004 125.606 251.004 125.811V126.22C251.415 125.688 252.401 125.196 253.182 125.196ZM215.944 135.521C214.547 133.759 213.643 132.12 213.355 130.768C213.232 130.194 213.191 129.661 213.273 129.211C213.314 128.801 213.479 128.432 213.684 128.145C214.177 127.449 214.999 126.998 215.944 126.998C216.89 126.998 217.753 127.408 218.205 128.145C218.41 128.473 218.575 128.801 218.616 129.211C218.698 129.661 218.657 130.194 218.534 130.768C218.246 132.12 217.342 133.759 215.944 135.521ZM223.878 139.742C225.152 139.251 226.057 138.103 226.221 136.751C226.303 136.054 226.221 135.44 226.098 134.784C226.053 134.651 225.997 134.518 225.935 134.372C225.882 134.248 225.825 134.115 225.769 133.964C225.666 133.76 225.574 133.544 225.481 133.329C225.389 133.114 225.296 132.899 225.193 132.694V132.653C223.426 128.842 221.536 124.949 219.563 121.139L219.481 120.975L219.481 120.975C219.275 120.565 219.07 120.155 218.864 119.786C218.659 119.376 218.412 118.967 218.124 118.639C217.59 118.024 216.85 117.696 216.069 117.696C215.288 117.696 214.549 118.024 214.014 118.639C213.727 119.008 213.48 119.376 213.275 119.786C213.069 120.196 212.864 120.606 212.658 120.975L212.576 121.139C210.562 124.949 208.671 128.842 206.904 132.653L206.863 132.694C206.657 133.104 206.452 133.555 206.288 133.964C206.164 134.251 206.041 134.538 205.959 134.784C205.671 135.522 205.63 136.136 205.712 136.792C205.877 138.103 206.781 139.251 208.055 139.783C208.63 139.988 209.288 140.111 209.987 140.029C210.644 139.947 211.302 139.742 211.959 139.373C212.864 138.841 213.809 138.062 214.877 136.874C213.192 134.784 212.124 132.858 211.754 131.178C211.548 130.399 211.507 129.662 211.631 129.006C211.754 128.351 211.959 127.777 212.329 127.244C213.11 126.138 214.466 125.441 215.946 125.441C217.426 125.441 218.782 126.097 219.563 127.244C219.933 127.777 220.138 128.351 220.262 129.006C220.344 129.662 220.303 130.399 220.138 131.178C219.727 132.858 218.7 134.743 217.015 136.833C218.083 138.021 218.987 138.8 219.933 139.333C220.631 139.701 221.248 139.906 221.905 139.988C222.604 140.07 223.262 139.988 223.878 139.742Z" fill="#8C98A4"/>
<path d="M53.392 120.868V130.576C53.392 133.811 51.9946 135.156 48.7066 135.156C45.4186 135.156 44.0212 133.811 44.0212 130.576V120.447H40.8566C40.5689 120.447 40.4456 120.573 40.4456 120.868V130.702C40.4456 136.123 43.8157 138.014 48.7066 138.014C53.5975 138.014 56.9677 136.123 56.9677 130.702V120.447H53.803C53.5564 120.447 53.392 120.573 53.392 120.868Z" fill="#8C98A4"/>
<path d="M99.3001 123.263C99.5467 123.263 99.67 123.179 99.7522 122.969L100.656 120.657C100.698 120.531 100.656 120.447 100.533 120.447H87.7922C86.6003 120.447 86.1482 120.825 86.1482 121.666V136.711C86.1482 137.425 86.477 137.72 87.4223 137.72H99.3001C99.5467 137.72 99.67 137.636 99.7522 137.425L100.656 135.114C100.698 134.988 100.656 134.904 100.533 134.904H89.6417V131.836C89.6417 130.785 90.2171 130.281 91.7378 130.281H96.4642C96.7108 130.281 96.8341 130.197 96.9163 129.987L97.7794 127.759C97.8205 127.633 97.7794 127.549 97.6561 127.549H89.6006V123.263H99.3001Z" fill="#8C98A4"/>
<path fill-rule="evenodd" clip-rule="evenodd" d="M78.8331 124.818C78.8331 126.457 78.2577 127.844 76.8603 128.6C78.7509 129.146 79.614 130.869 79.5729 132.929C79.5729 136.375 77.1891 137.72 73.8601 137.72H65.0236C64.0783 137.72 63.7495 137.425 63.7495 136.711V121.666C63.7495 120.825 64.2016 120.447 65.3935 120.447H72.6271C75.7917 120.447 78.8331 120.993 78.8331 124.818ZM67.284 123.221H72.8736C74.7231 123.221 75.2574 123.936 75.2574 125.448C75.2574 126.919 74.7231 127.676 72.8736 127.676H67.284V123.221ZM73.5312 134.946H67.284V131.794C67.284 130.743 67.8594 130.239 69.3801 130.239H73.5312C75.504 130.239 76.0794 131.037 76.0794 132.592C76.0794 134.189 75.504 134.946 73.5312 134.946Z" fill="#8C98A4"/>
<path fill-rule="evenodd" clip-rule="evenodd" d="M118.987 130.785L122.768 137.425C122.85 137.509 122.85 137.72 122.563 137.72H119.357C119.12 137.72 119.035 137.603 118.919 137.445C118.914 137.438 118.909 137.432 118.905 137.425L115.493 131.122H112.37C110.849 131.122 110.274 131.626 110.274 132.677V137.72H107.191C106.904 137.72 106.78 137.594 106.78 137.299V121.666C106.78 120.825 107.232 120.447 108.424 120.447H115.658C119.85 120.447 122.398 121.582 122.398 125.784C122.398 129.02 120.877 130.281 118.987 130.785ZM110.274 128.474H116.152C118.371 128.474 118.823 127.592 118.823 125.827C118.823 124.104 118.33 123.221 116.152 123.221H110.274V128.474Z" fill="#8C98A4"/>
</svg>
